<svg width="232" height="24" viewBox="0 0 232 24" fill="none" xmlns="http://www.w3.org/2000/svg">
<path d="M111 3H108C107.47 3 106.961 3.21071 106.586 3.58579C106.211 3.96086 106 4.46957 106 5V8M124 8V5C124 4.46957 123.789 3.96086 123.414 3.58579C123.039 3.21071 122.53 3 122 3H119M119 21H122C122.53 21 123.039 20.7893 123.414 20.4142C123.789 20.0391 124 19.5304 124 19V16M106 16V19C106 19.5304 106.211 20.0391 106.586 20.4142C106.961 20.7893 107.47 21 108 21H111" stroke="#2196F3" stroke-width="2" stroke-linecap="round" stroke-linejoin="round"/>
<path d="M19 11.5C19.0034 12.8199 18.6951 14.1219 18.1 15.3C17.3944 16.7118 16.3098 17.8992 14.9674 18.7293C13.6251 19.5594 12.0782 19.9994 10.5 20C9.18013 20.0035 7.87812 19.6951 6.7 19.1L1 21L2.9 15.3C2.30493 14.1219 1.99656 12.8199 2 11.5C2.00061 9.92179 2.44061 8.37488 3.27072 7.03258C4.10083 5.69028 5.28825 4.6056 6.7 3.90003C7.87812 3.30496 9.18013 2.99659 10.5 3.00003H11C13.0843 3.11502 15.053 3.99479 16.5291 5.47089C18.0052 6.94699 18.885 8.91568 19 11V11.5Z" stroke="white" stroke-width="2" stroke-linecap="round" stroke-linejoin="round"/>
<path d="M213 3H229C229.53 3 230.039 3.21071 230.414 3.58579C230.789 3.96086 231 4.46957 231 5V11C231 13.6522 229.946 16.1957 228.071 18.0711C226.196 19.9464 223.652 21 221 21C219.687 21 218.386 20.7413 217.173 20.2388C215.96 19.7362 214.858 18.9997 213.929 18.0711C212.054 16.1957 211 13.6522 211 11V5C211 4.46957 211.211 3.96086 211.586 3.58579C211.961 3.21071 212.47 3 213 3Z" stroke="white" stroke-width="2" stroke-linecap="round" stroke-linejoin="round"/>
<path d="M217 10L221 14L225 10" stroke="white" stroke-width="2" stroke-linecap="round" stroke-linejoin="round"/>
</svg>
