<svg width="20" height="20" viewBox="0 0 20 20" fill="none" xmlns="http://www.w3.org/2000/svg">
<path d="M20 10C20 11.9778 19.4135 13.9112 18.3147 15.5557C17.2159 17.2002 15.6541 18.4819 13.8268 19.2388C11.9996 19.9957 9.98891 20.1937 8.0491 19.8079C6.10929 19.422 4.32746 18.4696 2.92893 17.0711C1.53041 15.6725 0.577999 13.8907 0.192147 11.9509C-0.193705 10.0111 0.00432836 8.00043 0.761205 6.17317C1.51808 4.3459 2.79981 2.78412 4.4443 1.6853C6.08879 0.58649 8.02219 -2.35852e-08 10 0V2.22531C8.46231 2.22531 6.95915 2.68129 5.68061 3.53558C4.40207 4.38987 3.40557 5.60412 2.81712 7.02475C2.22867 8.44539 2.07471 10.0086 2.3747 11.5168C2.67469 13.0249 3.41515 14.4102 4.50246 15.4975C5.58977 16.5848 6.97509 17.3253 8.48323 17.6253C9.99137 17.9253 11.5546 17.7713 12.9752 17.1829C14.3959 16.5944 15.6101 15.5979 16.4644 14.3194C17.3187 13.0408 17.7747 11.5377 17.7747 10H20Z" fill="white"/>
</svg>
